<?xml version="1.0" encoding="UTF-8"?><svg xmlns="http://www.w3.org/2000/svg" xmlns:xlink="http://www.w3.org/1999/xlink" height="944.7" preserveAspectRatio="xMidYMid meet" version="1.0" viewBox="63.4 64.3 609.1 944.7" width="609.1" zoomAndPan="magnify"><g id="change1_1"><path d="m516.16 1002.5c-8.5084-2.0106-29.545-11.132-49.128-21.303-18.836-9.7826-38.721-19.948-44.188-22.59s-9.923-5.8564-9.9014-7.143 3.6292-21.289 8.017-44.449l7.9778-42.109-7.3124-12.231c-9.9102-16.576-27.668-38.202-30.123-36.685-1.0981 0.67863-2.0193 5.6459-2.0471 11.038-0.07313 14.162-7.7823 46.949-16.092 68.439-29.942 77.435-100.01 113.51-169.77 87.404-27.506-10.291-50.483-33.355-65.405-65.653-17.084-36.976-22.439-79.456-15.441-122.5 3.5264-21.69 16.439-53.674 31.968-79.187l12.601-20.701-8.0673-17.899c-19.738-43.792-34.407-95.911-38.811-137.89-2.4386-23.246-8.7462-37.034-30.744-67.206-8.4247-11.555-17.052-26.197-19.172-32.538-7.112-21.276-4.5766-56.488 8.2305-114.3 4.7026-21.23 4.8054-23.459 1.4105-30.578-5.9647-12.508-9.617-41.795-8.1498-65.351 1.4668-23.55 6.1002-39.532 13.854-47.785 4.7217-5.026 4.8466-6.1854 2.208-20.505-3.0165-16.371-1.874-25.637 3.9921-32.376 2.7305-3.137 3.7331-9.3422 3.7798-23.394 0.07657-23.066 5.1817-32.522 19.945-36.946 12.633-3.785 20.623-0.01748 36.001 16.975 6.825 7.5419 13.21 13.713 14.188 13.713s3.8488-2.6318 6.3791-5.8485c9.6535-12.272 31.801-4.7567 54.648 18.545 17.568 17.918 41.009 38.475 71.344 62.57 25.015 19.869 35.091 30.448 42.118 44.223 6.1108 11.978 10.436 13.636 16.26 6.2317 8.7514-11.126 30.296-17.313 36.987-10.622 1.544 1.544 2.8073 5.8528 2.8073 9.575 0 14.174 10.002 55.217 18.844 77.327 5.067 12.67 16.574 36.038 25.571 51.929 30.328 53.565 36.697 71.34 39.7 110.81 1.2343 16.22 4.3297 36.325 6.8785 44.679 8.5434 28.001 14.28 53.312 20.25 89.352 3.2607 19.684 6.919 39.523 8.1296 44.088 2.442 9.2078 11.066 18.351 22.986 24.37 7.5003 3.7873 8.3389 3.7478 19.149-0.90265 14.558-6.2627 31.491-6.2165 48.512 0.1323 7.3663 2.7476 20.762 7.4848 29.769 10.527s20.838 7.1934 26.293 9.2244l9.9165 3.6929-8.2731 8.5892c-10.597 11.002-31.124 41.725-40.776 61.03-23.632 47.266-43.829 114.12-66.571 220.36-2.0959 9.7908-5.0878 19.411-6.6487 21.379-4.3102 5.4336-17.562 6.4045-34.094 2.4979zm-225.85-134.14c22.241-11.203 46.95-35.838 56.575-56.403 11.943-25.519 11.72-26.434-10.02-41.146-61.207-41.418-112.22-124.02-129.85-210.23-2.6074-12.755-6.3617-28.817-8.3431-35.694-3.4115-11.84-3.9364-12.422-9.9062-10.978-3.4671 0.83885-11.814 5.1492-18.55 9.5787s-12.788 8.0536-13.452 8.0536c-3.0366 0-0.59319-7.068 6.0825-17.595l7.2882-11.492-9.8328-19.963c-5.408-10.98-14.479-28.075-20.157-37.989-10.541-18.404-17.338-38.989-17.338-52.51 0-13.905 4.1293-10.322 10.535 9.1401 9.0332 27.445 45.45 95.271 51.167 95.297 5.9862 0.02773 4.1013-8.6407-6.9837-32.117-11.38-24.102-66.579-173.09-69.908-188.69-2.4965-11.698-5.4784-3.7675-10.471 27.847-2.6396 16.716-6.2926 37.235-8.1177 45.598-6.0151 27.564-8.5671 58.567-6.2878 76.388 1.8082 14.138 3.5946 18.673 11.518 29.243 24.271 32.375 32.496 52.369 36.879 89.65 1.8191 15.473 5.4623 36.029 8.0961 45.679 11.528 42.236 38.241 102.19 54.209 121.66 16.301 19.875 21.215 31.214 22.444 51.789 0.97557 16.329 0.48721 18.941-5.6513 30.219-12.028 22.1-7.8788 53.894 9.1964 70.465 11.302 10.968 19.317 13.596 39.295 12.886 12.277-0.43671 18.746-2.2147 31.582-8.6805zm149.72-48.024c10.727-37.304 41.741-89.77 72.214-122.16 9.6923-10.303 17.622-19.331 17.622-20.062s-4.7728-4.1264-10.606-7.545c-12.436-7.2878-17.467-15.722-17.467-29.282 0-12.028-7.8662-58.296-13.686-80.501-2.3607-9.0068-8.273-26.307-13.138-38.445-8.2562-20.597-8.9252-24.108-10.029-52.637-1.6049-41.484-7.5687-57.869-43.411-119.26-5.9445-10.183-13.887-27.026-17.65-37.431-7.7668-21.475-16.718-62.065-16.718-75.811 0-16.28-9.041-17.617-25.495-3.7721-9.1228 7.6764-9.0276 8.8554 3.4248 42.42 9.5479 25.736 30.458 68.598 45.262 92.78 5.4036 8.8267 9.4207 16.453 8.9269 16.946-2.2552 2.2552-21.161-17.107-30.568-31.307-17.461-26.356-26.442-44.816-36.672-75.38-17.384-51.936-25.907-63.414-81.855-110.24-14.794-12.381-37.676-32.647-50.849-45.034s-25.595-22.522-27.604-22.522c-6.1607 0-17.457 6.9305-17.457 10.71 0 9.5936 27.42 44.006 66.03 82.866 45.634 45.93 58.492 64.273 77.688 110.82 11.971 29.03 25.153 52.222 40.14 70.621 10.728 13.171 9.6614 16.141-3.3749 9.3997-12.291-6.3559-26.176-24.539-38.181-49.998-41.461-87.929-48.446-98.485-93.12-140.71-29.365-27.755-35.801-35.298-55.243-64.73-24.175-36.598-35.124-47.696-47.055-47.696-10.04 0-14.778 7.3625-16.425 25.527-1.2619 13.917-1.2308 14.005 5.478 15.452 25.326 5.4626 32.938 12.146 53.297 46.803 12.594 21.438 25.135 38.339 51.488 69.389 35.085 41.337 43.528 57.665 65.65 126.95 13.775 43.142 14.093 44.39 10.822 42.368-4.7272-2.9216-18.166-30.311-32.208-65.642-16.935-42.61-29.472-62.859-60.111-97.086-22.585-25.23-30.48-36.168-49.37-68.395-14.378-24.529-22.05-32.553-35.315-36.93-12.26-4.046-14.333-1.051-10.966 15.843 4.0316 20.232 6.3153 56.731 3.5494 56.731-1.2803 0-4.4279-5.5269-6.9946-12.282s-6.1044-12.282-7.8617-12.282c-5.711 0-9.3758 23.49-8.3947 53.807 1.0067 31.108 2.5717 37.953 7.7029 33.695 1.7798-1.4771 3.2359-3.9726 3.2359-5.5457s2.1055-4.7655 4.6788-7.0944c3.222-2.9158 4.6829-7.2173 4.6919-13.814 0.01859-13.638 4.1348-26.677 9.2932-29.437 7.2606-3.8858 17.57-2.7062 26.024 2.9775 11.774 7.9158 42.248 62.188 59.595 106.13 5.0016 12.671 17.798 40.759 28.437 62.418s19.343 40.369 19.343 41.579c0 4.7134-11.246-5.5466-22.641-20.656-14.968-19.848-26.583-42.959-34.45-68.549-3.3525-10.905-10.565-27.788-16.027-37.518s-16.248-28.926-23.968-42.657c-14.34-25.506-19.498-29.829-24.482-20.516-3.8928 7.2739-3.0037 13.867 8.1292 60.275 8.7457 36.457 14.996 55.19 36.529 109.49 34.78 87.697 42.831 110.58 53.724 152.67 10.127 39.137 14.158 50.502 26.944 75.961 25.757 51.288 68.277 100.49 108 124.96 9.9433 6.1265 22.462 14.661 27.818 18.965 9.4211 7.5698 34.541 38.229 40.362 49.261 1.5686 2.9732 3.9984 5.0237 5.3996 4.5566s4.9535-9.2161 7.894-19.442z" fill="#030303"/></g></svg>