<?xml version="1.0" encoding="UTF-8"?><svg xmlns="http://www.w3.org/2000/svg" xmlns:xlink="http://www.w3.org/1999/xlink" height="1690.4" preserveAspectRatio="xMidYMid meet" version="1.0" viewBox="-0.2 -0.3 2075.2 1690.4" width="2075.2" zoomAndPan="magnify"><g stroke-width=".594"><g><path d="m1282.8 244.4c-1.87-1.37 0.13-3.14 1.4399-1.34-0.3599 0.33-1.0799 1-1.4399 1.34z" fill="#fff" stroke="#fff"/></g><g><path d="m2054.3 609.2c1.54-0.39 2.1099 0.24 1.73 1.89-1.56 0.39-2.1399-0.24-1.73-1.89z" fill="#fff" stroke="#fff"/></g><g><path d="m1984.4 799.06c1.2899-0.28 1.7999 0.29 1.5299 1.7-1.3798 0.28-1.8798-0.28-1.5299-1.7z" fill="#fff" stroke="#fff"/></g><g><path d="m1361.2 1519.5c1.38 0.13 1.62 0.8 0.73 1.98-1.4001-0.1699-1.6401-0.83-0.73-1.98z" fill="#fff" stroke="#fff"/></g><g><path d="m753.77 0h22.67c142.67 67.61 285.56 134.79 428.31 202.26 2.42 0.95 3.89 3.14 5.12 5.33 12.71-2.32 25.44-4.61 38.16-6.95 2.03-0.42 4.63-0.71 5.87 1.43 7.91 11.07 15.37 22.47 23.28 33.54 1.2699-2.03 3.48-4.28 6.0599-2.85 17.4 9.1 35.13 17.57 52.69 26.37 35.8 17.84 71.67 35.55 107.45 53.43 3.13 1.2 3.63 4.66 2.3 7.41 52.63-10.71 105.36-20.9 158.01-31.49 2.0601-0.41 4.13-0.9 6.26-0.91 4.16 3.34 6.8101 8.16 10.32 12.15 19.44 24.57 38.9 49.13 58.34 73.7 2.88 4.07 6.89 7.48 8.67 12.24-18.57 4.63-37.39 8.22-56.04 12.48-64.94 14.11-129.9 28.09-194.82 42.26-1.9401 0.41-3.92 0.2-5.8401-0.08 19.66-5 39.69-8.66 59.49-13.19 44.92-9.74 89.83-19.53 134.75-29.27 19.5-4.41 39.17-8.16 58.6-12.92-3.92-6.66-9.51-12.12-13.99-18.38-19.13-24.19-38.39-48.28-57.39-72.57-1.17-1.39-2.62-2.49-4-3.61-23.34 5.2-46.84 9.61-70.31 14.12-26.39 5.31-52.79 10.51-79.17 15.84-35.51 6.94-71.08 13.65-106.48 21.16-0.5299-0.28-1.59-0.86-2.13-1.14 26.94-5.94 54.14-10.6 81.15-16.18 4.04-0.99 8.65-0.91 12.03-3.68-8.3101-3.26-16.13-7.58-24.13-11.5-20.67-10.34-41.34-20.67-62-31-18.65-9.5-37.72-18.1-56.34-27.66-5.4701-2.46-10.49-6.12-16.46-7.28-1.3099-1.8-3.3099-0.03-1.4399 1.34 1.92 5.53 5.87 9.96 9.09 14.76 16.13 23.51 32.4 46.92 48.46 70.48 2.35 4.24 6.1299 7.6 7.95 12.14-2.09-0.82-3.4301-2.61-4.64-4.38-30.27-44.06-60.69-88.02-90.96-132.08-0.79-1.29-2.0601-2.23-3.62-1.92-46.77 8.67-93.66 16.81-140.45 25.43-4.39 0.88-9 1.07-13.1 3.05 6.9301 11.46 14.35 22.64 21.81 33.77 20.68 32.26 41.91 64.16 62.6 96.41 2.16 3.45 5.22 6.62 5.6799 10.86-21.87 5.39-43.93 10.01-65.9 14.96-69.73 15.63-139.47 31.24-209.21 46.81-1.3199 0.29-2.81 0.66-2.85 2.3 2.27 5.59 5.97 10.47 8.39 16 5.46 11.67 12.12 22.7 17.65 34.33 3.69 7.83 8.3701 15.15 12.01 23.01 4.38 9.43 9.9 18.26 14.29 27.68 0.8 1.97 2.43 4.05 4.84 3.49 93.71-22.44 187.49-44.68 281.21-67.07 1.64-0.48 2.28 1.35 3.14 2.37 96.9 151.76 193.84 303.5 290.77 455.25 3.5299 5.48 6.75 11.19 10.63 16.45 2.3199 2.41 5.7799 0.15 8.46-0.38 52.37-14.07 104.81-27.87 157.2-41.83 7.79-2.37 16.01-3.53 23.45-6.94-9.55-14.66-19.92-28.75-29.75-43.21-94.82-136.54-189.84-272.94-284.55-409.54 1.6801-0.22 2.85 0.99 3.71 2.29 6.29 9.05 12.49 18.15 18.84 27.16 2.96 4.33 5.64 8.9 9.2799 12.74 62.62-16.19 125.5-31.42 188.22-47.26 10.69-2.75 21.57-4.8 32.16-7.93 3.0801-0.63 2.77-4.31 3.4501-6.71 2.03-13.42 4.23-26.81 6.26-40.22 0.63 0.33 1.89 1 2.52 1.33-1.27 11.23-3.49 22.32-4.9601 33.53 2.2201-0.14 4.5601-0.2 6.5901 0.95 126.2 61.49 252.45 122.89 378.64 184.4 3 0.97 4.8699 4.99 2.3499 7.44-22.95 24.37-45.96 48.7-68.79 73.18-0.25 4.8 0.92 10.05-1.61 14.47-1.61 2.75-0.47 6.05-0.8301 9.05 0.1001 3.4-4.85 3.81-5.0399 7.09-0.5701 2.58-0.75 5.24-1.3301 7.82-0.5099 2.58-3.0499 4.35-3.0099 7.08-0.3 3.32-0.2101 6.66-0.5601 9.98-0.1 3.55-4.8 5.18-4.01 8.97 0.42 6.37-0.84 12.67-0.46 19.03-0.55 4.63-1.87 9.15-2.27 13.81-0.26 3.82-2.45 7.16-2.73 10.98 0.9099-2.33 2-5.6201 5.1899-5.13 4.49 1.42 7.76 5.16 11.63 7.72 4.87 3.86 10.16 7.2 14.77 11.36 2.37 2.22 0.99 5.74-1.02 7.68-152.97 172.01-305.92 344.04-458.9 516.06-11.83 13.19-23.42 26.61-35.43 39.64 2.9199 7.48 6.73 14.56 10.16 21.82 5.4399 11.38 10.68 22.9 17.17 33.74 10.11 16.62 19.77 33.67 32.39 48.57 8.55 10.07 18.05 19.36 28.4 27.59 10.75 8.55 22.57 15.6 34.3 22.69 15.19 9.23 30.67 18.12 47.14 24.88 30.58 13.21 63.21 20.51 95.44 28.42 1.53 0.4301 3.79 1.1101 3.59 3.1901 0.22 1.53-1.5699 2.24-2.39 3.26-8.5 6.96-17.03 13.88-25.51 20.86 2.17 8.33 4.9401 16.5 7.36 24.78 1.25 4.4399 3.17 8.7799 3.28 13.48-1.72 0.15-3.45 0.1799-4.99-0.59-34.52-14.76-69.03-29.55-103.31-44.87-11.87-5.37-23.8-10.64-35.42-16.55-16.2-8.6901-32.21-17.9-46.65-29.34-18.26-13.87-33.92-30.75-48.93-47.98 2.4199 6.6299 4.1899 13.69 8.35 19.53 5 6.91 10.45 13.5 16 19.99 17.28 20.73 38.48 37.6 58.48 55.56 15.27 13.42 30.65 26.7 46.04 39.99 1.7899 1.01 2.5399 4.29-0.1901 4.54-16.97 2.3999-34.08 3.89-51.09 5.99-1.53 10.64-2.89 21.29-4.3101 31.94-0.3199 1.55-0.38 3.3301-1.49 4.59-2.01 0.67-3.46-1.11-4.6899-2.36-29.12-33.54-58.23-67.09-87.4-100.59-4.87-5.1799-7.64-11.8-11.11-17.89-8.11-15.35-16.22-30.81-21.72-47.31-8.8501-25.77-15.89-52.11-23.82-78.16-27.68 27.39-55.28 54.87-82.95 82.27-2.5701 2.45-4.89 5.1799-7.6901 7.37-1.74 1.45-4.2 1.0599-6.1 0.24-7.73-3.14-14.22-8.48-21.12-13.02-431.85-295.49-863.71-590.96-1295.5-886.45-2.14-1.36-3.49-3.59-4.04-6.03-11.94-46.94-23.52-93.97-35.65-140.85v-8.81c10.12-17.17 18.99-35.01 27.65-52.94 2-3.8 3.39-8.44 7.52-10.48 207.06-119.26 414.1-238.57 621.16-357.85 32.45-18.82 65.13-37.27 97.44-56.33m-2.98 10.8c-232.84 134.12-465.65 268.3-698.51 402.41-0.96 0.53-3.3 1.95-1.52 3.02 452.09 289.9 904.18 579.86 1356.3 869.76 0.4199 0.14 1.26 0.41 1.6899 0.55 4.01-2.48 7.15-6.0701 10.11-9.6801 7.0801-7.6 14-15.34 21.36-22.69 5.6399-6.6801 12.04-12.66 17.92-19.12 5.3101-6.3301 11.53-11.81 16.93-18.06 5.5399-6.42 11.91-12.06 17.37-18.56 5.74-6.25 11.93-12.09 17.42-18.57 9.04-9 17.32-18.69 26.36-27.69 5.5-6.49 11.68-12.34 17.44-18.58 5.15-6.1599 11.14-11.54 16.45-17.55 5.79-6.8301 12.53-12.77 18.32-19.61 5.77-6.2401 11.93-12.11 17.43-18.6 8.38-8.3099 15.98-17.34 24.38-25.63 5.75-6.58 11.92-12.77 17.95-19.08 5.6-6.71 12.14-12.54 17.88-19.13 4.9099-5.74 10.57-10.78 15.54-16.47 5.8101-6.8 12.55-12.74 18.29-19.61 3.35-4.02 8.11-7.1299 9.87-12.26-0.13-0.08-0.38-0.2401-0.5-0.32-1.91-1.86-4.52-0.35-6.66 0.1-53.33 14.02-106.68 27.96-160 42.01-3.2599 1.25-4.8199-2.6-6.23-4.75-75.78-120.21-151.63-240.37-227.52-360.52-21.57-34.41-43.47-68.61-64.89-103.12-0.53-0.88-1.27-1.43-2.2301-1.65-88.2 18.87-176.49 37.68-264.73 56.52-5.27 1-10.91 3.57-16.14 1.12-5.2-8.0099-8.86-16.89-13.69-25.11-11.5-21.81-23.31-43.45-34.79-65.27-2.0099-4.78-5.6-8.8-7.08-13.79-1.18-14.92-1.7-29.94-0.57-44.88 0.33-3.45-0.17-7.05 0.92-10.38 0.66-1.9 2.97-1.85 4.58-2.4 59.06-13.25 118.16-26.39 177.22-39.69 19.9-4.55 39.95-8.52 59.7-13.67-1.22-3.76-3.6801-6.91-5.63-10.3-13.19-22.13-26.61-44.1-39.89-66.17-3.37-5.95-7.4-11.53-10.22-17.77-1.5699-3.01-0.7-6.4-0.4-9.58 0.9401-14.74 0.79-29.58 2.65-44.25-0.16-1.94 2.1899-2.09 3.5599-2.49 31.02-5.53 62.01-11.25 93.02-16.85 3.74-0.62 7.62-0.88 11.11-2.55-4.9299-4.36-11.64-5.78-17.33-8.87-5.49-3.04-11.35-5.31-17-8-7.7-4.18-15.99-7.12-23.65-11.38-15.77-7.13-31.26-14.81-47.02-21.95-7.6599-4.25-15.96-7.17-23.64-11.38-6.7401-3.32-13.74-6.05-20.34-9.64-9.3199-3.78-18.01-8.9-27.33-12.68-8.62-4.55-17.72-8.08-26.34-12.64-7.74-3.03-14.9-7.29-22.53-10.55-6.07-2.42-11.64-5.91-17.71-8.3-6.02-2.46-11.57-5.89-17.57-8.39-7-2.82-13.46-6.78-20.5-9.51-21.98-10.82-44.39-20.72-66.37-31.55-8.18-3.3-15.8-7.79-23.99-11.06-8.61-4.56-17.71-8.08-26.33-12.63-8.66-3.44-16.66-8.28-25.31-11.75-4.56-1.87-8.66-4.8-13.36-6.29-5.1498 1.58-9.4598 5.04-14.21 7.48m344.34 225.06c-2.14 9.24-1.0699 18.77-2.02 28.14-0.24 7.84-2.36 16.3 1.15 23.72 14.64 24.36 29.26 48.74 43.9 73.12 4.0599 6.23 7.1699 13.13 11.92 18.9 7.61-2.21 15.42-3.65 23.15-5.44 3.51-0.85 7.1901-1.33 10.4-3.12-4.51-7.36-9.13-14.66-13.94-21.82-19.52-29.83-38.85-59.78-58.4-89.6-5.6098-7.8-9.7899-16.71-16.16-23.9m-1053 183.42c-6.09 1.92-7.25 8.88-10.2 13.71-0.73 2.13-3.77 5.19-0.9 6.92 440.29 282.39 880.58 564.79 1320.9 847.19 15.24 9.9401 30.78 19.42 45.86 29.6 3.01-6.8899 5.6799-13.94 7.98-21.09 0.6899-1.3099 0.27-2.73-1.0701-3.3199-449.47-288.19-898.92-576.43-1348.4-864.67-4.84-2.56-8.88-6.76-14.18-8.34m1636 15.86c-32.3 8.07-64.55 16.4-96.96 24.02-41.06 10.39-82.23 20.32-123.21 30.98 0.42 0.83 0.88 1.65 1.37 2.47 89.75 129.22 179.63 258.38 269.37 387.63 4.91 6.65 8.9401 14.02 14.83 19.9-2.29 10.67-3.76 21.48-5.9501 32.17-0.2899 1.62 0.13 3.25 0.4 4.87 6.05-3.05 9.47-9.34 14.3-13.88 8.1-7.91 15.37-16.62 23.43-24.58 4.2001-4.14 7.85-8.79 12.05-12.94 8.53-8.48 16.3-17.68 24.91-26.1 6-6.98 12.67-13.35 18.93-20.1 5.92-7.04 12.83-13.14 18.84-20.1 5.29-6.05 11.3-11.42 16.57-17.49 5.39-6.25 11.6-11.74 17-18 5.23-6.07 11.22-11.45 16.51-17.47 6.1599-7.14 13.25-13.4 19.33-20.61 6.33-6.68 12.91-13.13 18.94-20.09 8.09-7.93 15.4-16.59 23.42-24.59 5.1801-5.16 9.76-10.89 15.02-15.98 6.08-5.93 11.41-12.57 17.5-18.5 5.92-5.76 11.07-12.25 17.01-17.99 5.59-5.42 10.43-11.55 15.99-17 6.73-6.64 12.79-13.91 19.38-20.67 2.11-1.19 4.5199-1.77 6.62-3.05-6.9-5.31-15.57-7.46-23.09-11.7-11.88-5.79-23.49-12.18-35.66-17.35-9.8-4.83-19.52-9.82-29.33-14.63-15.9-6.72-30.76-15.67-46.67-22.37-9.8-4.83-19.52-9.82-29.33-14.63-10.38-4.34-20.24-9.78-30.34-14.7-6.83-3.7-14.18-6.29-21-9.99-11.45-5.56-22.61-11.73-34.33-16.69-9.8101-4.82-19.53-9.81-29.33-14.63-15.9-6.71-30.76-15.65-46.66-22.36-10.27-5.03-20.41-10.33-30.72-15.26-5.05-2.52-12.06-3.6-13.78-9.87-2.1198 3.6099 0.0302 10.3-5.3598 11.28m-770.92 5.54c-0.71 5.79-0.35 11.65-0.9 17.45-0.62 6.61-0.27 13.24 0.26 19.83 0.5099 5.7-0.77 11.91 2.34 17.07 15.87 29.23 31.34 58.67 47.08 87.97 2.03 3.56 3.01 8.2 6.86 10.33 0.31-6.12 1.54-12.27 0.59-18.39-0.7-8.98-1.16-17.97-1.25-26.97-0.07-1.48-0.14-3.0099-0.95-4.28-3.84-6.35-6.88-13.12-10.18-19.76-2.57-5.61-6.18-10.65-8.73-16.27-3.39-6.58-6.27-13.45-10.18-19.75-4.09-7.11-7.23-14.72-11.17-21.91-4.42-7.17-7.81-14.9-11.59-22.41-0.55-1.1-1.4-2-2.18-2.91m331.75 37.11c-91.56 21.85-183.18 43.54-274.71 65.51-0.74 2.69-1.19 5.49-0.81 8.29 1.62 14.03 0.84 28.23 2.67 42.24 0.26 0.17 0.79 0.51 1.05 0.68 43.95-9.66 88.02-18.85 132.02-28.31 47.59-10.01 95.1-20.37 142.7-30.32 0.53-8.4 1.27-16.79 1.75-25.19 1.27-11.29 0.83-22.78 3.12-33.93-2.6601-0.6-5.2701 0.31-7.7901 1.03m9.19 2.13c-1.5601 5.91-1.39 12.05-1.9401 18.08-0.95 11.19-1.27 22.44-2.6899 33.58-0.48 3 1.14 5.69 2.75 8.08 97.67 155 195.57 309.87 293.2 464.88 0.55 0.1 1.67 0.29 2.23 0.39 3.64-17.19 5.23-34.75 8.5901-51.98 0.6899 0.79 1.6599 1.6 1.23 2.81-2.9301 16.41-5.5701 32.91-7.6901 49.44 5.79-0.81 11.24-3.1 16.96-4.29 43.89-11.41 87.71-23.05 131.59-34.48 8.3099-2.6 17.01-3.79 25.22-6.74 4.64-1.62 9.73-1.67 14.16-3.97 3.49-15.09 5.22-30.55 8.3199-45.72 0.41-2.04 1.01-4.4-0.53-6.13-0.08-0.11-0.24-0.32-0.33-0.42-0.28-0.31-0.84-0.92-1.13-1.22-57.41 15.06-114.72 30.53-172.12 45.64-5.16 1.35-10.21 3.17-15.51 3.89-60.56-94.83-121.13-189.65-181.69-284.47-39.55-62.11-79.4-124.04-118.8-186.25-0.4601-0.28-1.3701-0.84-1.8201-1.12m-1237.8 9.86c-0.92 0.78-1.21 1.74-0.86 2.89 11.43 44 21.82 88.3 33.57 132.22 0.57 1.94 2.56 2.85 4.05 4.01 50.75 34.94 101.71 69.58 152.52 104.43 376.83 257.84 753.68 515.67 1130.5 773.52 7.6899 4.79 14.63 10.74 22.61 15.1 5.75-46.25 9.77-92.7 15.06-139 0.41-3.87 2.16-9.4199-1.91-11.92-7.24-4.35-14.01-9.4301-21.25-13.76-8.0099-4.9301-15.56-10.56-23.63-15.38-180.54-117.81-361.16-235.48-541.74-353.23-53.02-34.63-106.14-69.13-159.11-103.84-9.33-5.58-18.03-12.14-27.38-17.7-20.27-13.4-40.77-26.47-61.01-39.93-9.15-5.41-17.65-11.83-26.76-17.3-7.77-4.84-15.14-10.31-23-15-82.42-53.92-165.05-107.52-247.47-161.45-8.5-5.08-16.42-11.07-24.9-16.17-6.37-3.88-12.35-8.35-18.73-12.22-7.84-4.72-15.19-10.21-23-15-8.48-5.11-16.4-11.09-24.9-16.16-7.77-4.85-15.13-10.31-23-15-7.97-4.98-15.54-10.59-23.62-15.39-8.12-5.17-15.93-10.83-24.21-15.76-18.97-12.76-38.4-24.81-57.37-37.58-1.17-0.68-2.63-1.72-3.97-0.77-0.12 0.1-0.38 0.29-0.5 0.39m2043.9 119.42c-0.4099 1.65 0.1699 2.28 1.73 1.89 0.3799-1.65-0.1899-2.28-1.73-1.89m-68.52 95.56c-179.46 190.83-358.99 381.59-538.43 572.44 2.7201 1.7301 4.79 4.2201 6.86 6.66 16.82 18.21 34.31 36.07 47.73 57.03 2.33-1.6801 3.8999-4.1 5.76-6.24 133.19-144.48 266.34-288.99 399.55-433.45 24.32-26.65 49.07-52.9 73.24-79.69 2.63-2.45 3.85-5.99 4.2101-9.49-0.8401-4.69-1.4701-9.58-4.03-13.7-0.74-1.98-3.03-4.05-1.6801-6.21 3.48-6 3-13.18 4.8-19.7 1.0699-2.5699-0.8101-5.09-0.09-7.68 1.11-5.76 0.45-11.73 1.5599-17.46 5.73-5.41 1.12-14.32 5.74-20.29 2-2.74 1.4501-6.35 2.4-9.47 0.5599-3.28 3.79-5.08 5.15-7.96 0.62-2.19-0.5801-4.35-1.0701-6.43 3.13-3.08 4.3501-7.82 1.7201-11.64-5.1699 3.69-9.3299 8.49-13.42 13.28m-1.35 94.3c-0.35 1.42 0.15 1.98 1.5299 1.7 0.2701-1.41-0.2399-1.98-1.5299-1.7m-538.18 479.97c-3.62 2.86-6.85 6.15-9.61 9.86-1.14 0.76-2.3 1.51-3.1899 2.5699-7.0801 8.54-15.11 16.23-22.47 24.54-2.36 2.72-5.58 5.16-6.09 8.98-1.1899 6.27-1.9 12.63-2.84 18.95-5.77 40.68-11.66 81.34-17.44 122.03-0.3199 3.0801-1.7999 6.17-0.6799 9.28 4.76-2.5599 7.7999-7.15 11.24-11.14 11.83-13.49 23.79-26.87 35.59-40.39 3.3-3.5299 5.4301-8.5 10.52-9.8099-7.12-16.76-15.02-33.15-22.27-49.83-4.4399-6.34-10.86-11.06-15.29-17.4 5.4601 0.83 7.8 6.76 11.42 10.26 6.48 6.3099 8.86 15.24 12.85 23.09 9.42 21.17 19.02 42.27 28.49 63.41 8.11 27.98 16.01 56.05 25.63 83.55 7.1 17.82 16.19 34.76 25.42 51.53 6.38 8.53 13.86 16.17 20.65 24.39 20.59 23.7 41.22 47.37 61.79 71.1 3.14 3.54 5.5701 7.99 9.99 10.15 2.7201-11.13 3.02-22.68 5.28-33.9 16.53-2.84 33.39-3.33 49.88-6.33-0.71-1.28-1.4-2.5801-2.49-3.52-29.23-24.7-57.92-50.08-86.3-75.73-7.6001-8.74-15.49-17.23-22.6-26.37-4.12-5.3-8.73-10.38-11.35-16.64-4.0699-9.35-6.78-19.2-10.13-28.81-6.34-19.17-12.74-38.33-19.71-57.28-7.34-21.37-15.69-42.4-25.02-62.98-12.14-26.9-25.06-53.46-38.75-79.6 0.1-0.46 0.3-1.36 0.4-1.8199 1.37-0.42 1.47 1.73 2.22 2.5 14.07 27.88 27.64 55.99 40.45 84.47 16.94 38.84 30.28 79.11 43.7 119.27 0.28 0.95 0.8199 1.75 1.63 2.39 4.5599 3.49 7.46 8.5699 11.55 12.55 7.8401 8.12 14.65 17.27 23.38 24.5 6.16 5.55 12.54 10.85 18.97 16.07 13.42 10.36 27.93 19.22 42.86 27.23 6.96 4.41 14.87 6.9199 22.09 10.85 36.51 16.35 73.15 32.43 109.99 48.03 2.28 0.86 4.73 2.75 7.27 1.6799 0.12-0.0699 0.37-0.22 0.49-0.2899 1.51-0.9501 0.45-2.9501 0.26-4.28-2.85-9.37-5.64-18.76-8.74-28.04 3.64-5.3199 9.65-8.24 14.2-12.67 4.0601-4.03 9.63-6.51 12.82-11.36-2.8101-1.1899-5.7201-2.09-8.6801-2.6699-10.25-2.1-20.34-4.8301-30.42-7.6-32.69-8.14-64.68-19.96-93.59-37.4-13.8-8.4501-28.06-16.25-41.03-25.98-6.5599-4.6801-12.35-10.31-18.58-15.4-4.8099-3.88-8.3-9.03-12.44-13.55-6.55-7.25-12.13-15.29-17.64-23.32-9.89-16.27-20.44-32.23-28.51-49.5-4.13-10.26-10-19.7-14.14-29.95-4.59-8.74-7.17-18.36-11.91-27.04-11.2-23.7-30.21-42.23-47.68-61.3-3.6802-3.9101-6.5502-8.7902-11.44-11.33m-44.22 30.91c-0.42 1.5701-0.5601 4.9801 1.83 4.66 1.67-2.03 1.76-5.6799-1.83-4.66m-11.67 27.4c-5.35 10.3-10.04 20.97-15.97 30.96-0.6 1.61 1.12 4.7699 3.1 3.1699 5.14-3.53 10.21-7.21 15.32-10.78 2.59-7.95 2.1699-16.57 4.1699-24.69 0.9-2.99 0.49-6.11-0.26-9.0601-3.2 2.69-4.46 6.81-6.36 10.4m-29.16 182.16c-0.91 1.15-0.67 1.8101 0.73 1.98 0.8899-1.18 0.65-1.85-0.73-1.98z" fill="inherit" stroke="#000"/></g><g><path d="m750.79 10.8c4.75-2.44 9.06-5.9 14.21-7.48 4.7 1.49 8.8 4.42 13.36 6.29 8.65 3.47 16.65 8.31 25.31 11.75 8.62 4.55 17.72 8.07 26.33 12.63 8.19 3.27 15.81 7.76 23.99 11.06 21.98 10.83 44.39 20.73 66.37 31.55 7.04 2.73 13.5 6.69 20.5 9.51 6 2.5 11.55 5.93 17.57 8.39 6.07 2.39 11.64 5.88 17.71 8.3 7.63 3.26 14.79 7.52 22.53 10.55 8.62 4.56 17.72 8.09 26.34 12.64 9.3199 3.78 18.01 8.9 27.33 12.68 6.6 3.59 13.6 6.32 20.34 9.64 7.6799 4.21 15.98 7.13 23.64 11.38 15.76 7.14 31.25 14.82 47.02 21.95 7.66 4.26 15.95 7.2 23.65 11.38 5.65 2.69 11.51 4.96 17 8 5.6901 3.09 12.4 4.51 17.33 8.87-3.49 1.67-7.37 1.93-11.11 2.55-31.01 5.6-62 11.32-93.02 16.85-1.37 0.4-3.72 0.55-3.5599 2.49-1.86 14.67-1.71 29.51-2.65 44.25-0.2999 3.18-1.1699 6.57 0.4 9.58 2.8199 6.24 6.85 11.82 10.22 17.77 13.28 22.07 26.7 44.04 39.89 66.17 1.95 3.39 4.41 6.54 5.63 10.3-19.75 5.15-39.8 9.12-59.7 13.67-59.06 13.3-118.16 26.44-177.22 39.69-1.61 0.55-3.92 0.5-4.58 2.4-1.09 3.33-0.59 6.93-0.92 10.38-1.13 14.94-0.61 29.96 0.57 44.88 1.48 4.99 5.07 9.01 7.08 13.79 11.48 21.82 23.29 43.46 34.79 65.27 4.83 8.22 8.49 17.1 13.69 25.11 5.23 2.45 10.87-0.12 16.14-1.12 88.24-18.84 176.53-37.65 264.73-56.52 0.9601 0.22 1.7001 0.77 2.2301 1.65 21.42 34.51 43.32 68.71 64.89 103.12 75.89 120.15 151.74 240.31 227.52 360.52 1.41 2.15 2.9701 6 6.23 4.75 53.32-14.05 106.67-27.99 160-42.01 2.14-0.45 4.75-1.96 6.66-0.1 0.12 0.08 0.37 0.24 0.5 0.32-1.76 5.13-6.52 8.24-9.87 12.26-5.74 6.8701-12.48 12.81-18.29 19.61-4.97 5.69-10.63 10.73-15.54 16.47-5.74 6.59-12.28 12.42-17.88 19.13-6.03 6.3101-12.2 12.5-17.95 19.08-8.3999 8.29-16 17.32-24.38 25.63-5.5 6.49-11.66 12.36-17.43 18.6-5.79 6.84-12.53 12.78-18.32 19.61-5.3099 6.01-11.3 11.39-16.45 17.55-5.76 6.24-11.94 12.09-17.44 18.58-9.04 9-17.32 18.69-26.36 27.69-5.49 6.48-11.68 12.32-17.42 18.57-5.4601 6.5-11.83 12.14-17.37 18.56-5.4 6.25-11.62 11.73-16.93 18.06-5.88 6.46-12.28 12.44-17.92 19.12-7.3601 7.35-14.28 15.09-21.36 22.69-2.96 3.61-6.1 7.2001-10.11 9.6801-0.4299-0.14-1.27-0.41-1.6899-0.55-452.08-289.9-904.17-579.86-1356.3-869.76-1.78-1.07 0.56-2.49 1.52-3.02 232.86-134.11 465.67-268.29 698.51-402.41z" fill="#282828" stroke="#282828"/></g><g><path d="m1284.2 243.06c5.9701 1.16 10.99 4.82 16.46 7.28 18.62 9.56 37.69 18.16 56.34 27.66 20.66 10.33 41.33 20.66 62 31 8 3.92 15.82 8.24 24.13 11.5-3.38 2.77-7.99 2.69-12.03 3.68-27.01 5.58-54.21 10.24-81.15 16.18 0.54 0.28 1.6001 0.86 2.13 1.14-1.2799 0.19-2.5499 0.3-3.8199 0.28-1.8201-4.54-5.6-7.9-7.95-12.14-16.06-23.56-32.33-46.97-48.46-70.48-3.22-4.8-7.1699-9.23-9.09-14.76 0.3599-0.34 1.0799-1.01 1.4399-1.34z" fill="#282828" stroke="#282828"/></g><g><path d="m1678.2 435.14c5.39-0.98 3.24-7.67 5.36-11.28 1.72 6.27 8.73 7.35 13.78 9.87 10.31 4.93 20.45 10.23 30.72 15.26 15.9 6.71 30.76 15.65 46.66 22.36 9.7999 4.82 19.52 9.81 29.33 14.63 11.72 4.96 22.88 11.13 34.33 16.69 6.8201 3.7 14.17 6.29 21 9.99 10.1 4.92 19.96 10.36 30.34 14.7 9.8099 4.81 19.53 9.8 29.33 14.63 15.91 6.7 30.77 15.65 46.67 22.37 9.8099 4.81 19.53 9.8 29.33 14.63 12.17 5.17 23.78 11.56 35.66 17.35 7.52 4.24 16.19 6.39 23.09 11.7-2.1001 1.28-4.51 1.86-6.62 3.05-6.59 6.7599-12.65 14.03-19.38 20.67-5.5601 5.45-10.4 11.58-15.99 17-5.9401 5.74-11.09 12.23-17.01 17.99-6.09 5.93-11.42 12.57-17.5 18.5-5.26 5.09-9.84 10.82-15.02 15.98-8.02 8-15.33 16.66-23.42 24.59-6.03 6.96-12.61 13.41-18.94 20.09-6.08 7.21-13.17 13.47-19.33 20.61-5.29 6.02-11.28 11.4-16.51 17.47-5.4 6.26-11.61 11.75-17 18-5.27 6.07-11.28 11.44-16.57 17.49-6.01 6.96-12.92 13.06-18.84 20.1-6.26 6.75-12.93 13.12-18.93 20.1-8.61 8.42-16.38 17.62-24.91 26.1-4.2001 4.15-7.85 8.8-12.05 12.94-8.0599 7.96-15.33 16.67-23.43 24.58-4.8301 4.54-8.25 10.83-14.3 13.88-0.27-1.62-0.6899-3.25-0.4-4.87 2.1901-10.69 3.66-21.5 5.9501-32.17-5.89-5.88-9.92-13.25-14.83-19.9-89.74-129.25-179.62-258.41-269.37-387.63-0.49-0.82-0.95-1.64-1.37-2.47 40.98-10.66 82.15-20.59 123.21-30.98 32.41-7.6199 64.66-15.95 96.96-24.02z" fill="#282828" stroke="#282828"/></g><g><path d="m1108.6 228.83c46.79-8.62 93.68-16.76 140.45-25.43 1.5599-0.31 2.83 0.63 3.62 1.92 30.27 44.06 60.69 88.02 90.96 132.08 1.21 1.77 2.55 3.56 4.64 4.38 1.27 0.02 2.54-0.09 3.8199-0.28 35.4-7.51 70.97-14.22 106.48-21.16 26.38-5.33 52.78-10.53 79.17-15.84 23.47-4.51 46.97-8.92 70.31-14.12 1.38 1.12 2.83 2.22 4 3.61 19 24.29 38.26 48.38 57.39 72.57 4.48 6.26 10.07 11.72 13.99 18.38-19.43 4.76-39.1 8.51-58.6 12.92-44.92 9.74-89.83 19.53-134.75 29.27-19.8 4.53-39.83 8.19-59.49 13.19-1.2999 0.65-2.5299 1.42-3.76 2.15l-0.7699 0.44-0.1801 0.84c-0.23 0.93-0.4 1.89-0.51 2.85 94.71 136.6 189.73 273 284.55 409.54 9.83 14.46 20.2 28.55 29.75 43.21-7.4401 3.41-15.66 4.57-23.45 6.94-52.39 13.96-104.83 27.76-157.2 41.83-2.6801 0.53-6.14 2.79-8.46 0.38-3.88-5.26-7.1001-10.97-10.63-16.45-96.93-151.75-193.87-303.49-290.77-455.25-0.86-1.02-1.5-2.85-3.14-2.37-93.72 22.39-187.5 44.63-281.21 67.07-2.41 0.56-4.04-1.52-4.84-3.49-4.39-9.42-9.91-18.25-14.29-27.68-3.64-7.86-8.32-15.18-12.01-23.01-5.53-11.63-12.19-22.66-17.65-34.33-2.42-5.53-6.12-10.41-8.39-16 0.04-1.64 1.53-2.01 2.85-2.3 69.74-15.57 139.48-31.18 209.21-46.81 21.97-4.95 44.03-9.57 65.9-14.96-0.46-4.24-3.5199-7.41-5.6799-10.86-20.69-32.25-41.92-64.15-62.6-96.41-7.4601-11.13-14.88-22.31-21.81-33.77 4.1-1.98 8.71-2.17 13.1-3.05z" fill="#D6A40E" stroke="#D6A40E"/></g><g><path d="m1095.1 235.86c6.37 7.19 10.55 16.1 16.16 23.9 19.55 29.82 38.88 59.77 58.4 89.6 4.8101 7.16 9.4301 14.46 13.94 21.82-3.21 1.79-6.89 2.27-10.4 3.12-7.73 1.79-15.54 3.23-23.15 5.44-4.75-5.77-7.86-12.67-11.92-18.9-14.64-24.38-29.26-48.76-43.9-73.12-3.51-7.42-1.39-15.88-1.15-23.72 0.95-9.37-0.1201-18.9 2.0199-28.14z" fill="#463505" stroke="#463505"/></g><g><path d="m1631.2 398.14c18.65-4.26 37.47-7.85 56.04-12.48v1.01c-2.03 13.41-4.23 26.8-6.26 40.22-0.6801 2.4-0.37 6.08-3.4501 6.71-10.59 3.13-21.47 5.18-32.16 7.93-62.72 15.84-125.6 31.07-188.22 47.26-3.6399-3.84-6.3199-8.41-9.2799-12.74-6.35-9.01-12.55-18.11-18.84-27.16-0.86-1.3-2.0299-2.51-3.71-2.29 0.11-0.96 0.28-1.92 0.51-2.85 1.59 0.45 1.91 0.02 0.95-1.28 1.2301-0.73 2.4601-1.5 3.76-2.15 1.92 0.28 3.9 0.49 5.8401 0.08 64.92-14.17 129.88-28.15 194.82-42.26z" fill="#463505" stroke="#463505"/></g><g><path d="m907.23 440.68c0.78 0.91 1.63 1.81 2.18 2.91 3.78 7.51 7.17 15.24 11.59 22.41 3.94 7.19 7.08 14.8 11.17 21.91 3.91 6.3 6.79 13.17 10.18 19.75 2.55 5.62 6.16 10.66 8.73 16.27 3.3 6.64 6.34 13.41 10.18 19.76 0.81 1.27 0.88 2.8 0.95 4.28 0.09 9 0.55 17.99 1.25 26.97 0.95 6.12-0.28 12.27-0.59 18.39-3.85-2.13-4.83-6.77-6.86-10.33-15.74-29.3-31.21-58.74-47.08-87.97-3.11-5.16-1.83-11.37-2.34-17.07-0.53-6.59-0.88-13.22-0.26-19.83 0.55-5.8 0.19-11.66 0.9-17.45z" fill="#463505" stroke="#463505"/></g><g><path d="m1248.2 479.92c0.45 0.28 1.36 0.84 1.8199 1.12 39.4 62.21 79.25 124.14 118.8 186.25 60.56 94.82 121.13 189.64 181.69 284.47 5.3-0.72 10.35-2.54 15.51-3.89 57.4-15.11 114.71-30.58 172.12-45.64 0.29 0.3 0.85 0.91 1.13 1.22 0.09 0.1 0.25 0.31 0.33 0.42 1.54 1.73 0.9401 4.09 0.53 6.13-3.1 15.17-4.83 30.63-8.3199 45.72-4.4301 2.3-9.52 2.35-14.16 3.97-8.21 2.95-16.91 4.14-25.22 6.74-43.88 11.43-87.7 23.07-131.59 34.48-5.7201 1.19-11.17 3.48-16.96 4.29 2.12-16.53 4.76-33.03 7.6901-49.44 0.4299-1.21-0.54-2.02-1.23-2.81-3.3601 17.23-4.9501 34.79-8.5901 51.98-0.5599-0.1-1.6799-0.29-2.23-0.39-97.63-155.01-195.53-309.88-293.2-464.88-1.61-2.39-3.23-5.08-2.75-8.08 1.4199-11.14 1.74-22.39 2.6899-33.58 0.5503-6.03 0.3803-12.17 1.9403-18.08z" fill="#463505" stroke="#463505"/></g><g><path d="m42.17 419.28c5.3 1.58 9.34 5.78 14.18 8.34 449.44 288.24 898.89 576.48 1348.4 864.67 1.3401 0.59 1.76 2.01 1.0701 3.3199-2.3 7.15-4.97 14.2-7.98 21.09-15.08-10.18-30.62-19.66-45.86-29.6-440.29-282.4-880.58-564.8-1320.9-847.19-2.87-1.73 0.17-4.79 0.9-6.92 2.95-4.83 4.11-11.79 10.2-13.71z" fill="#4E4D4D" stroke="#4E4D4D"/></g><g><path d="m1390.3 1337.3c1.9-3.59 3.16-7.71 6.36-10.4 0.75 2.9501 1.16 6.0701 0.26 9.0601-2 8.12-1.58 16.74-4.1699 24.69-5.11 3.5701-10.18 7.25-15.32 10.78-1.98 1.6-3.7-1.5599-3.1-3.1699 5.93-9.99 10.62-20.66 15.97-30.96z" fill="#4E4D4D" stroke="#4E4D4D"/></g><g><path d="m1426 442.91l0.7699-0.44c0.9601 1.3 0.64 1.73-0.95 1.28l0.1801-0.84z" fill="#C3C3C3" stroke="#C3C3C3"/></g><g><path d="m1239 477.79c2.52-0.72 5.13-1.63 7.79-1.03-2.29 11.15-1.85 22.64-3.12 33.93-0.48 8.4-1.22 16.79-1.75 25.19-47.6 9.95-95.11 20.31-142.7 30.32-44 9.46-88.07 18.65-132.02 28.31-0.26-0.17-0.79-0.51-1.05-0.68-1.83-14.01-1.05-28.21-2.67-42.24-0.38-2.8 0.07-5.6 0.81-8.29 91.53-21.97 183.15-43.66 274.71-65.51z" fill="#5C4606" stroke="#5C4606"/></g><g><path d="m10.39 489.78c0.12-0.1 0.38-0.29 0.5-0.39-0.12 0.1-0.38 0.29-0.5 0.39z" fill="#DFDFDF" stroke="#DFDFDF"/></g><g><path d="m10.89 489.39c1.34-0.95 2.8 0.09 3.97 0.77 18.97 12.77 38.4 24.82 57.37 37.58 8.28 4.93 16.09 10.59 24.21 15.76 8.08 4.8 15.65 10.41 23.62 15.39 7.87 4.69 15.23 10.15 23 15 8.5 5.07 16.42 11.05 24.9 16.16 7.81 4.79 15.16 10.28 23 15 6.38 3.87 12.36 8.34 18.73 12.22 8.48 5.1 16.4 11.09 24.9 16.17 82.42 53.93 165.05 107.53 247.47 161.45 7.86 4.69 15.23 10.16 23 15 9.11 5.47 17.61 11.89 26.76 17.3 20.24 13.46 40.74 26.53 61.01 39.93 9.35 5.56 18.05 12.12 27.38 17.7 52.97 34.71 106.09 69.21 159.11 103.84 180.58 117.75 361.2 235.42 541.74 353.23 8.0699 4.8199 15.62 10.45 23.63 15.38 7.2401 4.33 14.01 9.41 21.25 13.76 4.0701 2.5 2.3201 8.0499 1.91 11.92-5.2899 46.3-9.3099 92.75-15.06 139-7.98-4.36-14.92-10.31-22.61-15.1-376.83-257.85-753.68-515.68-1130.5-773.52-50.81-34.85-101.77-69.49-152.52-104.43-1.49-1.16-3.48-2.07-4.05-4.01-11.75-43.92-22.14-88.22-33.57-132.22-0.35-1.15-0.06-2.11 0.86-2.89 0.12-0.1 0.38-0.29 0.5-0.39z" fill="#191919" stroke="#191919"/></g><g><path d="m1985.8 704.76c4.09-4.79 8.25-9.59 13.42-13.28 2.63 3.82 1.4099 8.56-1.7201 11.64 0.49 2.08 1.6901 4.24 1.0701 6.43-1.36 2.88-4.5901 4.68-5.15 7.96-0.95 3.12-0.4 6.73-2.4 9.47-4.62 5.97-0.01 14.88-5.74 20.29-1.11 5.73-0.45 11.7-1.5599 17.46-0.7201 2.59 1.1599 5.11 0.09 7.68-1.8 6.52-1.3201 13.7-4.8 19.7-1.35 2.16 0.9401 4.23 1.6801 6.21 2.5599 4.12 3.1899 9.01 4.03 13.7-0.3601 3.5-1.5801 7.04-4.2101 9.49-24.17 26.79-48.92 53.04-73.24 79.69-133.21 144.46-266.36 288.97-399.55 433.45-1.8601 2.14-3.4301 4.5599-5.76 6.24-13.42-20.96-30.91-38.82-47.73-57.03-2.0699-2.4399-4.1399-4.9299-6.86-6.66 179.44-190.85 358.97-381.61 538.43-572.44z" fill="#ECDB7F" stroke="#ECDB7F"/></g><g><path d="m1402 1343.9c0.53 0.8899 1.09 1.8199 1.6699 2.74 4.4301 6.34 10.85 11.06 15.29 17.4 7.25 16.68 15.15 33.07 22.27 49.83-5.09 1.3099-7.22 6.28-10.52 9.8099-11.8 13.52-23.76 26.9-35.59 40.39-3.4401 3.99-6.48 8.5801-11.24 11.14-1.12-3.11 0.36-6.2 0.6799-9.28 5.7802-40.69 11.67-81.35 17.44-122.03z" fill="#ECDB7F" stroke="#ECDB7F"/></g><g><path d="m1739.2 903.45c0.09 0.1 0.25 0.31 0.33 0.42-0.08-0.11-0.24-0.32-0.33-0.42z" fill="#ACACAC" stroke="#ACACAC"/></g><g><path d="m1709.2 965.33c0.12 0.08 0.37 0.24 0.5 0.32-0.13-0.08-0.38-0.24-0.5-0.32z" fill="#D0D0D0" stroke="#D0D0D0"/></g><g><path d="m1446.2 1279c4.89 2.5399 7.76 7.4199 11.44 11.33 17.47 19.07 36.48 37.6 47.68 61.3 4.74 8.6799 7.3201 18.3 11.91 27.04 4.14 10.25 10.01 19.69 14.14 29.95 8.0699 17.27 18.62 33.23 28.51 49.5 5.51 8.03 11.09 16.07 17.64 23.32 4.1399 4.52 7.63 9.67 12.44 13.55 6.23 5.09 12.02 10.72 18.58 15.4 12.97 9.73 27.23 17.53 41.03 25.98 28.91 17.44 60.9 29.26 93.59 37.4 10.08 2.7699 20.17 5.5 30.42 7.6 2.96 0.58 5.87 1.48 8.6801 2.6699-3.1901 4.8501-8.76 7.3301-12.82 11.36-4.5499 4.4299-10.56 7.35-14.2 12.67 3.1 9.28 5.89 18.67 8.74 28.04 0.1899 1.33 1.25 3.33-0.26 4.28-0.12 0.0699-0.37 0.22-0.49 0.2899-2.54 1.0701-4.99-0.8199-7.27-1.6799-36.84-15.6-73.48-31.68-109.99-48.03-7.22-3.9301-15.13-6.4399-22.09-10.85-14.93-8.01-29.44-16.87-42.86-27.23-6.4301-5.2201-12.81-10.52-18.97-16.07-8.73-7.23-15.54-16.38-23.38-24.5-4.09-3.98-6.99-9.0599-11.55-12.55-0.8101-0.64-1.35-1.4401-1.63-2.39-13.42-40.16-26.76-80.43-43.7-119.27-12.81-28.48-26.38-56.59-40.45-84.47-0.75-0.77-0.85-2.92-2.22-2.5-0.1 0.46-0.3 1.36-0.4 1.8199-0.74-1.37-1.45-2.75-2.13-4.1 2.7602-3.7096 5.9902-6.9997 9.6102-9.8597z" fill="#683C2E" stroke="#683C2E"/></g><g><path d="m1433.4 1291.5c0.8899-1.0599 2.0499-1.8099 3.1899-2.5699 0.6801 1.35 1.39 2.73 2.13 4.1 13.69 26.14 26.61 52.7 38.75 79.6 9.33 20.58 17.68 41.61 25.02 62.98 6.97 18.95 13.37 38.11 19.71 57.28 3.35 9.61 6.0601 19.46 10.13 28.81 2.62 6.26 7.23 11.34 11.35 16.64 7.11 9.1399 15 17.63 22.6 26.37 28.38 25.65 57.07 51.03 86.3 75.73 1.09 0.9399 1.78 2.24 2.49 3.52-16.49 3-33.35 3.49-49.88 6.33-2.26 11.22-2.5599 22.77-5.28 33.9-4.4199-2.16-6.85-6.61-9.99-10.15-20.57-23.73-41.2-47.4-61.79-71.1-6.79-8.22-14.27-15.86-20.65-24.39-9.23-16.77-18.32-33.71-25.42-51.53-9.62-27.5-17.52-55.57-25.63-83.55-9.47-21.14-19.07-42.24-28.49-63.41-3.99-7.85-6.37-16.78-12.85-23.09-3.62-3.5-5.96-9.4301-11.42-10.26-0.58-0.92-1.1399-1.8501-1.6699-2.74 0.9399-6.3201 1.65-12.68 2.84-18.95 0.51-3.8199 3.73-6.26 6.09-8.98 7.3597-8.3103 15.39-16 22.47-24.54z" fill="#8C513E" stroke="#8C513E"/></g><g><path d="m1402 1309.9c3.59-1.0199 3.5 2.63 1.83 4.66-2.39 0.3201-2.25-3.0899-1.83-4.66z" fill="#444343" stroke="#444343"/></g><g><path d="m1763.3 1640.7c0.12-0.0699 0.37-0.22 0.49-0.2899-0.12 0.0699-0.37 0.2199-0.49 0.2899z" fill="#BDBDBD" stroke="#BDBDBD"/></g></g></svg>